<svg id="Layer_1" data-name="Layer 1" xmlns="http://www.w3.org/2000/svg" viewBox="0 0 31 72.21">
  <defs>
    <style>.cls-1{fill:#fff;}</style>
  </defs>
  <title>icons-fedict-expanded</title>
  <path
    d="M24.63,29.62H6.38a2.5,2.5,0,0,1-2.5-2.5V2.67A2.5,2.5,0,0,1,6.38.17H24.63a2.5,2.5,0,0,1,2.5,2.5V27.12A2.5,2.5,0,0,1,24.63,29.62ZM6.38,1.17a1.5,1.5,0,0,0-1.5,1.5V27.12a1.5,1.5,0,0,0,1.5,1.5H24.63a1.5,1.5,0,0,0,1.5-1.5V2.67a1.5,1.5,0,0,0-1.5-1.5H6.38Z"/>
  <rect class="cls-1" x="11.71" y="38.54" width="7.58" height="5" rx="1" ry="1"/>
  <path
    d="M18.29,44H12.71a1.5,1.5,0,0,1-1.5-1.5v-3a1.5,1.5,0,0,1,1.5-1.5h5.58a1.5,1.5,0,0,1,1.5,1.5v3A1.5,1.5,0,0,1,18.29,44Zm-5.58-5a0.5,0.5,0,0,0-.5.5v3a0.5,0.5,0,0,0,.5.5h5.58a0.5,0.5,0,0,0,.5-0.5v-3a0.5,0.5,0,0,0-.5-0.5H12.71Z"/>
  <path class="cls-1"
        d="M28.5,40.12a60.33,60.33,0,0,1-12.61,1.42A60.33,60.33,0,0,1,2.5,40.12a2,2,0,0,1-1.41-.59A2,2,0,0,1,.5,38.13v-18a2,2,0,0,1,2-2,40.72,40.72,0,0,0,13.18,1.71s2.17-.09,12.82-1.71a2,2,0,0,1,2,2v18A2,2,0,0,1,28.5,40.12Z"/>
  <path
    d="M15.5,42A60.88,60.88,0,0,1,2.44,40.62a2.56,2.56,0,0,1-1.71-.73A2.48,2.48,0,0,1,0,38.12v-18a2.5,2.5,0,0,1,2.5-2.5l0.14,0a40.61,40.61,0,0,0,13,1.69s2.31-.11,12.77-1.7h0A2.51,2.51,0,0,1,31,20.12v18a2.5,2.5,0,0,1-2.44,2.5A61,61,0,0,1,15.89,42H15.5ZM2.43,18.63A1.5,1.5,0,0,0,1,20.12v18a1.49,1.49,0,0,0,.44,1.06,1.54,1.54,0,0,0,1.06.44H2.61A59.47,59.47,0,0,0,15.88,41a60,60,0,0,0,12.51-1.41H28.5a1.5,1.5,0,0,0,1.5-1.5v-18a1.5,1.5,0,0,0-1.5-1.5c-10.49,1.6-12.71,1.7-12.8,1.71A41.47,41.47,0,0,1,2.43,18.63Z"/>
  <circle cx="21.87" cy="37.12" r="1.5"/>
  <circle cx="26.56" cy="36.15" r="1.5"/>
  <rect x="6.64" y="2.9" width="11.4" height="9.41" rx="1" ry="1"/>
  <path
    d="M17,12.81H7.64a1.5,1.5,0,0,1-1.5-1.5V3.9a1.5,1.5,0,0,1,1.5-1.5H17a1.5,1.5,0,0,1,1.5,1.5v7.41A1.5,1.5,0,0,1,17,12.81ZM7.64,3.4a0.5,0.5,0,0,0-.5.5v7.41a0.5,0.5,0,0,0,.5.5H17a0.5,0.5,0,0,0,.5-0.5V3.9A0.5,0.5,0,0,0,17,3.4H7.64Z"/>
  <path class="cls-1" d="M15.59,9.8a4,4,0,0,0,1.91,2V3.65a4.26,4.26,0,0,0-2,1.95"/>
  <path class="cls-1"
        d="M15.91,7.65h0a2.34,2.34,0,0,1-2.28,2.18H11.92a2.09,2.09,0,0,1-2-2.18h0a2.09,2.09,0,0,1,2-2.18h1.71A2.34,2.34,0,0,1,15.91,7.65Z"/>
  <path
    d="M13.63,10.33H11.92A2.6,2.6,0,0,1,9.43,7.65,2.6,2.6,0,0,1,11.92,5h1.71a2.84,2.84,0,0,1,2.78,2.68A2.84,2.84,0,0,1,13.63,10.33ZM11.92,6a1.6,1.6,0,0,0-1.49,1.68,1.6,1.6,0,0,0,1.49,1.68h1.71a1.85,1.85,0,0,0,1.78-1.68A1.85,1.85,0,0,0,13.63,6H11.92Z"/>
  <path
    d="M16,72.21H15c0-1.9,1.12-3.37,2.1-4.67,0.85-1.11,1.58-2.08,1.37-3s-1.25-1.78-3.2-2.77-3.13-2.18-3.58-3.62c-0.71-2.3.62-4.74,1.79-6.89A9.62,9.62,0,0,0,15,47.46V43.54h1v3.92c0,1.29-.8,2.75-1.64,4.29C13.21,53.82,12,56,12.63,57.86a5.49,5.49,0,0,0,3.08,3C18,62,19.15,63.13,19.43,64.32c0.32,1.37-.59,2.56-1.55,3.82S16,70.64,16,72.21Z"/>
</svg>
