<svg id="Layer_1" data-name="Layer 1" xmlns="http://www.w3.org/2000/svg" viewBox="0 0 35.92 46">
  <defs>
    <style>.cls-1{fill:#fff;}</style>
  </defs>
  <title>icons-fedict-expanded</title>
  <path
    d="M25.5,46H2.5A2.5,2.5,0,0,1,0,43.5V2.5A2.5,2.5,0,0,1,2.5,0h23A2.5,2.5,0,0,1,28,2.5v41A2.5,2.5,0,0,1,25.5,46ZM2.5,1A1.5,1.5,0,0,0,1,2.5v41A1.5,1.5,0,0,0,2.5,45h23A1.5,1.5,0,0,0,27,43.5V2.5A1.5,1.5,0,0,0,25.5,1H2.5Z"/>
  <path
    d="M23.19,37.2H4.69a2.5,2.5,0,0,1-2.5-2.5V6.58a2.5,2.5,0,0,1,2.5-2.5h18.5a2.5,2.5,0,0,1,2.5,2.5V34.7A2.5,2.5,0,0,1,23.19,37.2ZM4.69,5.08a1.5,1.5,0,0,0-1.5,1.5V34.7a1.5,1.5,0,0,0,1.5,1.5h18.5a1.5,1.5,0,0,0,1.5-1.5V6.58a1.5,1.5,0,0,0-1.5-1.5H4.69Z"/>
  <circle cx="14.06" cy="40.94" r="1.75"/>
  <rect x="9.17" y="9.1" width="26.75" height="14.75" rx="2" ry="2"/>
  <path
    d="M13.94,23.42v2.09a0.79,0.79,0,0,0,1.4.51l1.88-2.24a0.79,0.79,0,0,0-.67-1.3l-1.88.16A0.79,0.79,0,0,0,13.94,23.42Z"/>
  <path class="cls-1" d="M17.66,18.38H14.91L14.33,20H13l2.69-7.11h1.11L19.53,20H18.24Zm-2.41-1h2.06l-1-2.95Z"/>
  <path class="cls-1"
        d="M21.57,17.4V20H20.34V12.92h2.72a2.75,2.75,0,0,1,1.89.62,2.09,2.09,0,0,1,.7,1.64A2,2,0,0,1,25,16.81,2.88,2.88,0,0,1,23,17.4H21.57Zm0-1h1.48a1.46,1.46,0,0,0,1-.31,1.14,1.14,0,0,0,.35-0.9,1.23,1.23,0,0,0-.35-0.92,1.35,1.35,0,0,0-1-.35H21.57V16.4Z"/>
  <path class="cls-1"
        d="M28,17.4V20H26.73V12.92h2.72a2.75,2.75,0,0,1,1.89.62,2.09,2.09,0,0,1,.7,1.64,2,2,0,0,1-.69,1.63,2.89,2.89,0,0,1-1.92.58H28Zm0-1h1.48a1.46,1.46,0,0,0,1-.31,1.14,1.14,0,0,0,.35-0.9,1.23,1.23,0,0,0-.35-0.92,1.35,1.35,0,0,0-1-.35H28V16.4Z"/>
</svg>
